<svg version="1.0" xmlns="http://www.w3.org/2000/svg" width="256" height="256" fill="none" viewBox="0 0 256 256"> <g transform="translate(0.000000,118.000000) scale(0.050000,-0.050000)" fill="#e64a6d" stroke="none"> <path d="M2440 1956 c-38 -26 -83 -76 -99 -111 l-28 -65 -212 0 c-294 0 -374 -54 -410 -275 -26 -155 -220 -207 -301 -81 -123 192 -389 190 -493 -3 -55 -105 -156 -104 -226 2 -164 247 -531 151 -531 -139 0 -296 396 -404 530 -144 48 94 179 94 227 1 102 -197 369 -199 493 -5 84 132 271 79 301 -86 30 -168 130 -270 264 -270 54 0 70 -12 104 -77 120 -235 486 -168 531 98 52 309 -397 464 -530 183 -63 -132 -186 -70 -234 119 -15 58 -42 121 -59 140 -29 32 -28 39 10 87 22 29 47 93 54 143 22 144 62 167 288 167 l192 0 37 -70 c104 -193 400 -187 502 11 132 255 -173 535 -410 375z m259 -149 c51 -65 52 -129 4 -188 -81 -100 -250 -30 -250 103 0 129 166 187 246 85z m-2169 -427 c84 -93 20 -240 -103 -240 -129 0 -196 151 -107 240 53 53 162 53 210 0z m715 5 c91 -101 34 -245 -96 -245 -129 0 -198 151 -109 240 50 50 162 53 205 5z m1171 -459 c55 -60 47 -135 -19 -191 -119 -101 -290 48 -216 187 47 88 157 90 235 4z"/> </g> </svg>