<svg
  xmlns="http://www.w3.org/2000/svg"
  width="256"
  height="256"
  viewBox="0 0 256 256"
  fill="none"
>

  <rect
    width="256"
    height="256"
    rx="60"
    fill="#242938"
  />

  <g
    fill="#f34a08"
    transform="
      translate(128 128)
      scale(0.32 -0.32)
      translate(-340 -340)
    "
  >
    <path d="M340 495 c0 -78 0 -78 -55 -18 l-43 48 -26 -24 c-35 -33 -33 -42 15
-86 49 -44 47 -47 -28 -49 l-58 -1 -3 -37 c-4 -42 -7 -40 83 -38 l60 1 -49
-50 -50 -51 24 -25 c31 -33 37 -32 77 15 46 54 53 51 53 -25 l0 -65 40 0 40 0
0 65 c0 76 2 77 47 25 41 -47 51 -49 83 -15 l24 25 -50 51 -49 51 65 -4 c61
-3 64 -2 70 22 13 52 3 61 -61 58 -76 -4 -79 3 -25 48 54 45 53 41 22 77 -30
34 -26 35 -80 -20 l-46 -48 0 68 0 67 -40 0 -40 0 0 -65z m67 -111 c26 -7 38
-50 24 -87 -9 -23 -16 -27 -49 -27 -48 0 -62 14 -62 62 0 48 32 67 87 52z"/>
  </g>
</svg>
